<mxfile host="Electron" agent="Mozilla/5.0 (Windows NT 10.0; Win64; x64) AppleWebKit/537.36 (KHTML, like Gecko) draw.io/28.2.5 Chrome/138.0.7204.251 Electron/37.6.1 Safari/537.36" version="28.2.5">
  <diagram name="Page-1" id="weDaAmp8C1JlZzbtxT6c">
    <mxGraphModel dx="1123" dy="737" grid="1" gridSize="10" guides="1" tooltips="1" connect="1" arrows="1" fold="1" page="1" pageScale="1" pageWidth="850" pageHeight="1100" math="0" shadow="0">
      <root>
        <mxCell id="0" />
        <mxCell id="1" parent="0" />
        <mxCell id="_tZOZjE9dq4oZ9yZ86jF-9" value="" style="group" parent="1" vertex="1" connectable="0">
          <mxGeometry x="80" y="240" width="120" height="480" as="geometry" />
        </mxCell>
        <mxCell id="_tZOZjE9dq4oZ9yZ86jF-1" value="" style="rounded=0;whiteSpace=wrap;html=1;fillColor=none;dashed=1;fontColor=#ffffff;strokeColor=light-dark(#314354, #424548);container=1;" parent="_tZOZjE9dq4oZ9yZ86jF-9" vertex="1">
          <mxGeometry y="10" width="120" height="470" as="geometry" />
        </mxCell>
        <mxCell id="_tZOZjE9dq4oZ9yZ86jF-4" value="ERP&lt;div&gt;&lt;br&gt;&lt;/div&gt;" style="image;aspect=fixed;html=1;points=[];align=center;fontSize=12;image=img/lib/azure2/general/Folder_Blank.svg;" parent="_tZOZjE9dq4oZ9yZ86jF-1" vertex="1">
          <mxGeometry x="31" y="340.5" width="49.29" height="40" as="geometry" />
        </mxCell>
        <mxCell id="_tZOZjE9dq4oZ9yZ86jF-6" value="" style="verticalLabelPosition=bottom;html=1;verticalAlign=top;align=center;strokeColor=none;fillColor=#00BEF2;shape=mxgraph.azure.file_2;pointerEvents=1;" parent="_tZOZjE9dq4oZ9yZ86jF-1" vertex="1">
          <mxGeometry x="66.29000000000002" y="369.5" width="15" height="20" as="geometry" />
        </mxCell>
        <mxCell id="_tZOZjE9dq4oZ9yZ86jF-2" value="&lt;font style=&quot;font-size: 18px;&quot;&gt;Source&lt;/font&gt;" style="rounded=0;whiteSpace=wrap;html=1;" parent="_tZOZjE9dq4oZ9yZ86jF-9" vertex="1">
          <mxGeometry x="15" width="90" height="30" as="geometry" />
        </mxCell>
        <mxCell id="_tZOZjE9dq4oZ9yZ86jF-3" value="CRM" style="image;aspect=fixed;html=1;points=[];align=center;fontSize=12;image=img/lib/azure2/general/Folder_Blank.svg;" parent="_tZOZjE9dq4oZ9yZ86jF-9" vertex="1">
          <mxGeometry x="26" y="145" width="49.29" height="40" as="geometry" />
        </mxCell>
        <mxCell id="_tZOZjE9dq4oZ9yZ86jF-5" value="" style="verticalLabelPosition=bottom;html=1;verticalAlign=top;align=center;strokeColor=none;fillColor=#00BEF2;shape=mxgraph.azure.file_2;pointerEvents=1;" parent="_tZOZjE9dq4oZ9yZ86jF-9" vertex="1">
          <mxGeometry x="66.28999999999996" y="140" width="15" height="20" as="geometry" />
        </mxCell>
        <mxCell id="_tZOZjE9dq4oZ9yZ86jF-10" value="" style="rounded=0;whiteSpace=wrap;html=1;fillColor=none;dashed=1;strokeColor=#36393d;" parent="1" vertex="1">
          <mxGeometry x="240" y="280" width="160" height="440" as="geometry" />
        </mxCell>
        <mxCell id="_tZOZjE9dq4oZ9yZ86jF-11" value="" style="rounded=0;whiteSpace=wrap;html=1;fillColor=none;" parent="1" vertex="1">
          <mxGeometry x="240" y="240" width="120" height="30" as="geometry" />
        </mxCell>
        <mxCell id="_tZOZjE9dq4oZ9yZ86jF-12" value="&lt;font style=&quot;font-size: 14px;&quot;&gt;&lt;b&gt;Bronze Layer&lt;/b&gt;&lt;/font&gt;" style="text;html=1;align=center;verticalAlign=middle;whiteSpace=wrap;rounded=0;fillColor=#ffcc99;strokeColor=#36393d;" parent="1" vertex="1">
          <mxGeometry x="240" y="240" width="160" height="30" as="geometry" />
        </mxCell>
        <mxCell id="aL5PkLplEcysOi58Kbsb-11" style="edgeStyle=orthogonalEdgeStyle;rounded=0;orthogonalLoop=1;jettySize=auto;html=1;entryX=0;entryY=0.5;entryDx=0;entryDy=0;" edge="1" parent="1" source="_tZOZjE9dq4oZ9yZ86jF-13" target="aL5PkLplEcysOi58Kbsb-4">
          <mxGeometry relative="1" as="geometry" />
        </mxCell>
        <mxCell id="_tZOZjE9dq4oZ9yZ86jF-13" value="&lt;span style=&quot;font-size: 14px;&quot;&gt;crm_sales_details&lt;/span&gt;" style="text;html=1;align=center;verticalAlign=middle;whiteSpace=wrap;rounded=0;fillColor=#ffcc99;strokeColor=#36393d;" parent="1" vertex="1">
          <mxGeometry x="260" y="320" width="120" height="30" as="geometry" />
        </mxCell>
        <mxCell id="_tZOZjE9dq4oZ9yZ86jF-14" style="edgeStyle=orthogonalEdgeStyle;rounded=0;orthogonalLoop=1;jettySize=auto;html=1;exitX=0.5;exitY=1;exitDx=0;exitDy=0;" parent="1" source="_tZOZjE9dq4oZ9yZ86jF-13" target="_tZOZjE9dq4oZ9yZ86jF-13" edge="1">
          <mxGeometry relative="1" as="geometry" />
        </mxCell>
        <mxCell id="aL5PkLplEcysOi58Kbsb-12" style="edgeStyle=orthogonalEdgeStyle;rounded=0;orthogonalLoop=1;jettySize=auto;html=1;entryX=0;entryY=0.5;entryDx=0;entryDy=0;" edge="1" parent="1" source="_tZOZjE9dq4oZ9yZ86jF-15" target="aL5PkLplEcysOi58Kbsb-6">
          <mxGeometry relative="1" as="geometry" />
        </mxCell>
        <mxCell id="_tZOZjE9dq4oZ9yZ86jF-15" value="&lt;span style=&quot;font-size: 14px;&quot;&gt;crm_cust_info&lt;/span&gt;" style="text;html=1;align=center;verticalAlign=middle;whiteSpace=wrap;rounded=0;fillColor=#ffcc99;strokeColor=#36393d;" parent="1" vertex="1">
          <mxGeometry x="260" y="390" width="120" height="30" as="geometry" />
        </mxCell>
        <mxCell id="_tZOZjE9dq4oZ9yZ86jF-16" value="&lt;span style=&quot;font-size: 14px;&quot;&gt;crm_prd_info&lt;/span&gt;" style="text;html=1;align=center;verticalAlign=middle;whiteSpace=wrap;rounded=0;fillColor=#ffcc99;strokeColor=#36393d;" parent="1" vertex="1">
          <mxGeometry x="260" y="460" width="120" height="30" as="geometry" />
        </mxCell>
        <mxCell id="_tZOZjE9dq4oZ9yZ86jF-17" style="edgeStyle=orthogonalEdgeStyle;rounded=0;orthogonalLoop=1;jettySize=auto;html=1;entryX=0.125;entryY=0.455;entryDx=0;entryDy=0;entryPerimeter=0;" parent="1" source="_tZOZjE9dq4oZ9yZ86jF-3" target="_tZOZjE9dq4oZ9yZ86jF-10" edge="1">
          <mxGeometry relative="1" as="geometry">
            <Array as="points">
              <mxPoint x="220" y="405" />
              <mxPoint x="220" y="480" />
            </Array>
          </mxGeometry>
        </mxCell>
        <mxCell id="_tZOZjE9dq4oZ9yZ86jF-18" style="edgeStyle=orthogonalEdgeStyle;rounded=0;orthogonalLoop=1;jettySize=auto;html=1;" parent="1" source="_tZOZjE9dq4oZ9yZ86jF-3" target="_tZOZjE9dq4oZ9yZ86jF-13" edge="1">
          <mxGeometry relative="1" as="geometry">
            <Array as="points">
              <mxPoint x="220" y="405" />
              <mxPoint x="220" y="335" />
            </Array>
          </mxGeometry>
        </mxCell>
        <mxCell id="_tZOZjE9dq4oZ9yZ86jF-21" style="edgeStyle=orthogonalEdgeStyle;rounded=0;orthogonalLoop=1;jettySize=auto;html=1;entryX=0;entryY=0.5;entryDx=0;entryDy=0;" parent="1" source="_tZOZjE9dq4oZ9yZ86jF-3" target="_tZOZjE9dq4oZ9yZ86jF-15" edge="1">
          <mxGeometry relative="1" as="geometry" />
        </mxCell>
        <mxCell id="aL5PkLplEcysOi58Kbsb-14" style="edgeStyle=orthogonalEdgeStyle;rounded=0;orthogonalLoop=1;jettySize=auto;html=1;entryX=0;entryY=0.5;entryDx=0;entryDy=0;" edge="1" parent="1" source="_tZOZjE9dq4oZ9yZ86jF-24" target="aL5PkLplEcysOi58Kbsb-8">
          <mxGeometry relative="1" as="geometry" />
        </mxCell>
        <mxCell id="_tZOZjE9dq4oZ9yZ86jF-24" value="&lt;span style=&quot;font-size: 14px;&quot;&gt;erp_cust_az12&lt;/span&gt;" style="text;html=1;align=center;verticalAlign=middle;whiteSpace=wrap;rounded=0;fillColor=#ffcc99;strokeColor=#36393d;" parent="1" vertex="1">
          <mxGeometry x="260" y="530" width="120" height="30" as="geometry" />
        </mxCell>
        <mxCell id="aL5PkLplEcysOi58Kbsb-15" style="edgeStyle=orthogonalEdgeStyle;rounded=0;orthogonalLoop=1;jettySize=auto;html=1;" edge="1" parent="1" source="_tZOZjE9dq4oZ9yZ86jF-25" target="aL5PkLplEcysOi58Kbsb-9">
          <mxGeometry relative="1" as="geometry" />
        </mxCell>
        <mxCell id="_tZOZjE9dq4oZ9yZ86jF-25" value="&lt;span style=&quot;font-size: 14px;&quot;&gt;erp_loc_a101&lt;/span&gt;" style="text;html=1;align=center;verticalAlign=middle;whiteSpace=wrap;rounded=0;fillColor=#ffcc99;strokeColor=#36393d;" parent="1" vertex="1">
          <mxGeometry x="260" y="595.5" width="120" height="30" as="geometry" />
        </mxCell>
        <mxCell id="aL5PkLplEcysOi58Kbsb-16" style="edgeStyle=orthogonalEdgeStyle;rounded=0;orthogonalLoop=1;jettySize=auto;html=1;" edge="1" parent="1" source="_tZOZjE9dq4oZ9yZ86jF-26" target="aL5PkLplEcysOi58Kbsb-10">
          <mxGeometry relative="1" as="geometry" />
        </mxCell>
        <mxCell id="_tZOZjE9dq4oZ9yZ86jF-26" value="&lt;span style=&quot;font-size: 14px;&quot;&gt;erp_px_cat_g1v2&lt;/span&gt;" style="text;html=1;align=center;verticalAlign=middle;whiteSpace=wrap;rounded=0;fillColor=#ffcc99;strokeColor=#36393d;" parent="1" vertex="1">
          <mxGeometry x="260" y="670" width="120" height="30" as="geometry" />
        </mxCell>
        <mxCell id="_tZOZjE9dq4oZ9yZ86jF-28" style="edgeStyle=orthogonalEdgeStyle;rounded=0;orthogonalLoop=1;jettySize=auto;html=1;" parent="1" source="_tZOZjE9dq4oZ9yZ86jF-4" target="_tZOZjE9dq4oZ9yZ86jF-25" edge="1">
          <mxGeometry relative="1" as="geometry" />
        </mxCell>
        <mxCell id="_tZOZjE9dq4oZ9yZ86jF-29" style="edgeStyle=orthogonalEdgeStyle;rounded=0;orthogonalLoop=1;jettySize=auto;html=1;entryX=0;entryY=0.75;entryDx=0;entryDy=0;" parent="1" source="_tZOZjE9dq4oZ9yZ86jF-4" target="_tZOZjE9dq4oZ9yZ86jF-24" edge="1">
          <mxGeometry relative="1" as="geometry" />
        </mxCell>
        <mxCell id="_tZOZjE9dq4oZ9yZ86jF-30" style="edgeStyle=orthogonalEdgeStyle;rounded=0;orthogonalLoop=1;jettySize=auto;html=1;entryX=0;entryY=0.5;entryDx=0;entryDy=0;" parent="1" source="_tZOZjE9dq4oZ9yZ86jF-4" target="_tZOZjE9dq4oZ9yZ86jF-26" edge="1">
          <mxGeometry relative="1" as="geometry" />
        </mxCell>
        <mxCell id="aL5PkLplEcysOi58Kbsb-1" value="" style="rounded=0;whiteSpace=wrap;html=1;fillColor=none;dashed=1;strokeColor=#666666;fontColor=#333333;" vertex="1" parent="1">
          <mxGeometry x="500" y="280" width="160" height="440" as="geometry" />
        </mxCell>
        <mxCell id="aL5PkLplEcysOi58Kbsb-2" value="" style="rounded=0;whiteSpace=wrap;html=1;fillColor=#f5f5f5;fontColor=#333333;strokeColor=#666666;" vertex="1" parent="1">
          <mxGeometry x="500" y="240" width="120" height="30" as="geometry" />
        </mxCell>
        <mxCell id="aL5PkLplEcysOi58Kbsb-3" value="&lt;font style=&quot;font-size: 14px;&quot;&gt;&lt;b&gt;Bronze Layer&lt;/b&gt;&lt;/font&gt;" style="text;html=1;align=center;verticalAlign=middle;whiteSpace=wrap;rounded=0;fillColor=#f5f5f5;strokeColor=#666666;fontColor=#333333;" vertex="1" parent="1">
          <mxGeometry x="500" y="240" width="160" height="30" as="geometry" />
        </mxCell>
        <mxCell id="aL5PkLplEcysOi58Kbsb-30" style="edgeStyle=orthogonalEdgeStyle;rounded=0;orthogonalLoop=1;jettySize=auto;html=1;entryX=0;entryY=0.5;entryDx=0;entryDy=0;" edge="1" parent="1" source="aL5PkLplEcysOi58Kbsb-4" target="aL5PkLplEcysOi58Kbsb-20">
          <mxGeometry relative="1" as="geometry" />
        </mxCell>
        <mxCell id="aL5PkLplEcysOi58Kbsb-4" value="&lt;span style=&quot;font-size: 14px;&quot;&gt;crm_sales_details&lt;/span&gt;" style="text;html=1;align=center;verticalAlign=middle;whiteSpace=wrap;rounded=0;fillColor=#f5f5f5;strokeColor=#666666;fontColor=#333333;" vertex="1" parent="1">
          <mxGeometry x="520" y="320" width="120" height="30" as="geometry" />
        </mxCell>
        <mxCell id="aL5PkLplEcysOi58Kbsb-5" style="edgeStyle=orthogonalEdgeStyle;rounded=0;orthogonalLoop=1;jettySize=auto;html=1;exitX=0.5;exitY=1;exitDx=0;exitDy=0;fillColor=#f5f5f5;strokeColor=#666666;" edge="1" parent="1" source="aL5PkLplEcysOi58Kbsb-4" target="aL5PkLplEcysOi58Kbsb-4">
          <mxGeometry relative="1" as="geometry" />
        </mxCell>
        <mxCell id="aL5PkLplEcysOi58Kbsb-6" value="&lt;span style=&quot;font-size: 14px;&quot;&gt;crm_cust_info&lt;/span&gt;" style="text;html=1;align=center;verticalAlign=middle;whiteSpace=wrap;rounded=0;fillColor=#f5f5f5;strokeColor=#666666;fontColor=#333333;" vertex="1" parent="1">
          <mxGeometry x="520" y="390" width="120" height="30" as="geometry" />
        </mxCell>
        <mxCell id="aL5PkLplEcysOi58Kbsb-7" value="&lt;span style=&quot;font-size: 14px;&quot;&gt;crm_prd_info&lt;/span&gt;" style="text;html=1;align=center;verticalAlign=middle;whiteSpace=wrap;rounded=0;fillColor=#f5f5f5;strokeColor=#666666;fontColor=#333333;" vertex="1" parent="1">
          <mxGeometry x="520" y="460" width="120" height="30" as="geometry" />
        </mxCell>
        <mxCell id="aL5PkLplEcysOi58Kbsb-8" value="&lt;span style=&quot;font-size: 14px;&quot;&gt;erp_cust_az12&lt;/span&gt;" style="text;html=1;align=center;verticalAlign=middle;whiteSpace=wrap;rounded=0;fillColor=#f5f5f5;strokeColor=#666666;fontColor=#333333;" vertex="1" parent="1">
          <mxGeometry x="520" y="530" width="120" height="30" as="geometry" />
        </mxCell>
        <mxCell id="aL5PkLplEcysOi58Kbsb-9" value="&lt;span style=&quot;font-size: 14px;&quot;&gt;erp_loc_a101&lt;/span&gt;" style="text;html=1;align=center;verticalAlign=middle;whiteSpace=wrap;rounded=0;fillColor=#f5f5f5;strokeColor=#666666;fontColor=#333333;" vertex="1" parent="1">
          <mxGeometry x="520" y="595.5" width="120" height="30" as="geometry" />
        </mxCell>
        <mxCell id="aL5PkLplEcysOi58Kbsb-10" value="&lt;span style=&quot;font-size: 14px;&quot;&gt;erp_px_cat_g1v2&lt;/span&gt;" style="text;html=1;align=center;verticalAlign=middle;whiteSpace=wrap;rounded=0;fillColor=#f5f5f5;strokeColor=#666666;fontColor=#333333;" vertex="1" parent="1">
          <mxGeometry x="520" y="670" width="120" height="30" as="geometry" />
        </mxCell>
        <mxCell id="aL5PkLplEcysOi58Kbsb-13" style="edgeStyle=orthogonalEdgeStyle;rounded=0;orthogonalLoop=1;jettySize=auto;html=1;entryX=0.125;entryY=0.443;entryDx=0;entryDy=0;entryPerimeter=0;" edge="1" parent="1" source="_tZOZjE9dq4oZ9yZ86jF-16" target="aL5PkLplEcysOi58Kbsb-1">
          <mxGeometry relative="1" as="geometry" />
        </mxCell>
        <mxCell id="aL5PkLplEcysOi58Kbsb-17" value="" style="rounded=0;whiteSpace=wrap;html=1;fillColor=none;dashed=1;strokeColor=#36393d;" vertex="1" parent="1">
          <mxGeometry x="770" y="280" width="160" height="440" as="geometry" />
        </mxCell>
        <mxCell id="aL5PkLplEcysOi58Kbsb-18" value="" style="rounded=0;whiteSpace=wrap;html=1;fillColor=#ffff88;strokeColor=#36393d;" vertex="1" parent="1">
          <mxGeometry x="770" y="240" width="120" height="30" as="geometry" />
        </mxCell>
        <mxCell id="aL5PkLplEcysOi58Kbsb-19" value="&lt;font style=&quot;font-size: 14px;&quot;&gt;&lt;b&gt;Bronze Layer&lt;/b&gt;&lt;/font&gt;" style="text;html=1;align=center;verticalAlign=middle;whiteSpace=wrap;rounded=0;fillColor=#ffff88;strokeColor=#36393d;" vertex="1" parent="1">
          <mxGeometry x="770" y="240" width="160" height="30" as="geometry" />
        </mxCell>
        <mxCell id="aL5PkLplEcysOi58Kbsb-20" value="&lt;span style=&quot;font-size: 14px;&quot;&gt;fact_sales&lt;/span&gt;" style="text;html=1;align=center;verticalAlign=middle;whiteSpace=wrap;rounded=0;fillColor=#ffff88;strokeColor=#36393d;" vertex="1" parent="1">
          <mxGeometry x="790" y="320" width="120" height="30" as="geometry" />
        </mxCell>
        <mxCell id="aL5PkLplEcysOi58Kbsb-21" style="edgeStyle=orthogonalEdgeStyle;rounded=0;orthogonalLoop=1;jettySize=auto;html=1;exitX=0.5;exitY=1;exitDx=0;exitDy=0;fillColor=#ffff88;strokeColor=#36393d;" edge="1" parent="1" source="aL5PkLplEcysOi58Kbsb-20" target="aL5PkLplEcysOi58Kbsb-20">
          <mxGeometry relative="1" as="geometry" />
        </mxCell>
        <mxCell id="aL5PkLplEcysOi58Kbsb-22" value="&lt;span style=&quot;font-size: 14px;&quot;&gt;dim_products&lt;/span&gt;" style="text;html=1;align=center;verticalAlign=middle;whiteSpace=wrap;rounded=0;fillColor=#ffff88;strokeColor=#36393d;" vertex="1" parent="1">
          <mxGeometry x="790" y="440" width="120" height="30" as="geometry" />
        </mxCell>
        <mxCell id="aL5PkLplEcysOi58Kbsb-23" value="&lt;span style=&quot;font-size: 14px;&quot;&gt;dim_customers&lt;/span&gt;" style="text;html=1;align=center;verticalAlign=middle;whiteSpace=wrap;rounded=0;fillColor=#ffff88;strokeColor=#36393d;" vertex="1" parent="1">
          <mxGeometry x="790" y="565.5" width="120" height="30" as="geometry" />
        </mxCell>
        <mxCell id="aL5PkLplEcysOi58Kbsb-34" value="" style="endArrow=classic;html=1;rounded=0;exitX=1;exitY=0.5;exitDx=0;exitDy=0;entryX=0;entryY=0.5;entryDx=0;entryDy=0;jumpStyle=gap;" edge="1" parent="1" source="aL5PkLplEcysOi58Kbsb-7" target="aL5PkLplEcysOi58Kbsb-22">
          <mxGeometry width="50" height="50" relative="1" as="geometry">
            <mxPoint x="680" y="490" as="sourcePoint" />
            <mxPoint x="730" y="440" as="targetPoint" />
          </mxGeometry>
        </mxCell>
        <mxCell id="aL5PkLplEcysOi58Kbsb-35" value="" style="endArrow=classic;html=1;rounded=0;exitX=1;exitY=0.5;exitDx=0;exitDy=0;entryX=0;entryY=0.5;entryDx=0;entryDy=0;jumpStyle=gap;" edge="1" parent="1" source="aL5PkLplEcysOi58Kbsb-10" target="aL5PkLplEcysOi58Kbsb-22">
          <mxGeometry width="50" height="50" relative="1" as="geometry">
            <mxPoint x="690" y="590" as="sourcePoint" />
            <mxPoint x="740" y="540" as="targetPoint" />
          </mxGeometry>
        </mxCell>
        <mxCell id="aL5PkLplEcysOi58Kbsb-36" value="" style="endArrow=classic;html=1;rounded=0;exitX=1;exitY=0.5;exitDx=0;exitDy=0;entryX=0;entryY=0.75;entryDx=0;entryDy=0;jumpStyle=gap;" edge="1" parent="1" source="aL5PkLplEcysOi58Kbsb-8" target="aL5PkLplEcysOi58Kbsb-23">
          <mxGeometry width="50" height="50" relative="1" as="geometry">
            <mxPoint x="720" y="640" as="sourcePoint" />
            <mxPoint x="770" y="590" as="targetPoint" />
          </mxGeometry>
        </mxCell>
        <mxCell id="aL5PkLplEcysOi58Kbsb-37" value="" style="endArrow=classic;html=1;rounded=0;exitX=1;exitY=0.5;exitDx=0;exitDy=0;entryX=0;entryY=0.75;entryDx=0;entryDy=0;jumpStyle=gap;" edge="1" parent="1" source="aL5PkLplEcysOi58Kbsb-9" target="aL5PkLplEcysOi58Kbsb-23">
          <mxGeometry width="50" height="50" relative="1" as="geometry">
            <mxPoint x="710" y="650" as="sourcePoint" />
            <mxPoint x="790" y="590" as="targetPoint" />
          </mxGeometry>
        </mxCell>
        <mxCell id="aL5PkLplEcysOi58Kbsb-38" value="" style="endArrow=classic;html=1;rounded=0;exitX=1;exitY=0.5;exitDx=0;exitDy=0;jumpStyle=gap;entryX=0;entryY=0.75;entryDx=0;entryDy=0;" edge="1" parent="1" source="aL5PkLplEcysOi58Kbsb-6" target="aL5PkLplEcysOi58Kbsb-23">
          <mxGeometry width="50" height="50" relative="1" as="geometry">
            <mxPoint x="680" y="430" as="sourcePoint" />
            <mxPoint x="800" y="590" as="targetPoint" />
          </mxGeometry>
        </mxCell>
      </root>
    </mxGraphModel>
  </diagram>
</mxfile>
